<?xml version="1.0" standalone="no"?>
<!DOCTYPE svg PUBLIC "-//W3C//DTD SVG 20010904//EN"
 "http://www.w3.org/TR/2001/REC-SVG-20010904/DTD/svg10.dtd">
<svg version="1.0" xmlns="http://www.w3.org/2000/svg"
 width="247.000000pt" height="29.000000pt" viewBox="0 0 247.000000 29.000000"
 preserveAspectRatio="xMidYMid meet">

<g transform="translate(0.000000,29.000000) scale(0.100000,-0.100000)"
fill="#000000" stroke="none">
<path d="M2080 240 c0 -11 7 -20 15 -20 8 0 15 9 15 20 0 11 -7 20 -15 20 -8
0 -15 -9 -15 -20z"/>
<path d="M760 160 c0 -72 3 -90 14 -90 11 0 16 14 18 47 2 36 7 49 21 51 14 3
17 -4 17 -47 0 -45 2 -51 21 -51 20 0 21 4 17 56 -5 60 -19 77 -55 71 -19 -4
-23 0 -23 24 0 19 -5 29 -15 29 -12 0 -15 -17 -15 -90z"/>
<path d="M1790 160 c0 -73 3 -90 15 -90 12 0 15 17 15 90 0 73 -3 90 -15 90
-12 0 -15 -17 -15 -90z"/>
<path d="M46 225 c-27 -27 -17 -59 25 -81 16 -8 29 -22 29 -31 0 -12 -7 -14
-36 -10 -29 5 -35 3 -32 -11 5 -25 64 -28 89 -6 27 25 20 55 -18 79 -43 27
-44 50 -2 41 25 -5 30 -3 27 12 -4 23 -60 28 -82 7z"/>
<path d="M436 225 c-27 -27 -17 -59 25 -81 16 -8 29 -22 29 -31 0 -12 -7 -14
-36 -10 -29 5 -35 3 -32 -11 5 -25 64 -28 89 -6 27 25 20 55 -18 79 -43 27
-44 50 -2 41 25 -5 30 -3 27 12 -4 23 -60 28 -82 7z"/>
<path d="M637 220 c-22 -18 -27 -30 -27 -66 0 -58 26 -86 78 -82 25 2 38 8 40
20 3 14 -3 16 -31 11 -29 -4 -37 -2 -47 16 -26 50 11 102 61 86 17 -6 20 -3
17 12 -5 27 -58 29 -91 3z"/>
<path d="M1170 225 c0 -9 9 -15 25 -15 24 0 25 -2 25 -70 0 -56 3 -70 15 -70
12 0 15 14 15 70 0 68 1 70 25 70 16 0 25 6 25 15 0 12 -14 15 -65 15 -51 0
-65 -3 -65 -15z"/>
<path d="M1040 215 c0 -8 -4 -15 -10 -15 -5 0 -10 -7 -10 -15 0 -8 4 -15 9
-15 6 0 11 -21 13 -47 3 -43 5 -48 27 -48 13 0 26 6 29 13 2 6 -3 12 -12 12
-12 0 -16 10 -16 35 0 24 5 35 15 35 8 0 15 7 15 15 0 8 -7 15 -15 15 -8 0
-15 7 -15 15 0 8 -7 15 -15 15 -8 0 -15 -7 -15 -15z"/>
<path d="M1990 215 c0 -8 -4 -15 -10 -15 -5 0 -10 -7 -10 -15 0 -8 5 -15 10
-15 6 0 10 -17 10 -38 0 -41 14 -62 42 -62 22 0 24 26 3 34 -9 3 -15 18 -15
36 0 20 5 30 15 30 8 0 15 7 15 15 0 8 -7 15 -15 15 -8 0 -15 7 -15 15 0 8 -7
15 -15 15 -8 0 -15 -7 -15 -15z"/>
<path d="M173 193 c-7 -2 -13 -11 -13 -18 0 -10 9 -12 35 -8 23 4 35 2 35 -6
0 -6 -9 -11 -19 -11 -37 0 -51 -12 -51 -41 0 -30 12 -36 73 -37 26 0 27 2 27
52 0 29 -5 57 -12 64 -12 12 -52 15 -75 5z m52 -73 c3 -6 -1 -13 -10 -16 -19
-8 -30 0 -20 15 8 14 22 14 30 1z"/>
<path d="M300 185 c-13 -16 -10 -18 33 -15 15 1 27 -3 27 -9 0 -6 -10 -11 -23
-11 -29 0 -47 -18 -47 -47 0 -23 16 -30 73 -31 26 0 27 1 27 58 0 44 -4 59
-16 64 -27 11 -61 6 -74 -9z m60 -65 c0 -12 -28 -25 -36 -17 -9 9 6 27 22 27
8 0 14 -5 14 -10z"/>
<path d="M907 193 c-18 -18 -6 -32 23 -26 17 3 30 1 30 -4 0 -6 -14 -13 -30
-17 -34 -6 -48 -30 -33 -55 7 -10 26 -17 57 -18 l46 -2 0 49 c0 31 -6 54 -16
64 -15 16 -65 22 -77 9z m53 -78 c0 -8 -9 -15 -20 -15 -20 0 -26 11 -13 23 12
13 33 7 33 -8z"/>
<path d="M1320 133 c0 -49 3 -63 15 -63 11 0 15 12 15 46 0 37 4 47 20 51 34
9 23 31 -15 30 l-35 -1 0 -63z"/>
<path d="M1417 193 c-18 -18 -6 -32 23 -26 17 3 30 1 30 -4 0 -6 -14 -13 -30
-17 -34 -6 -48 -30 -33 -55 7 -10 26 -17 57 -18 l46 -2 0 49 c0 31 -6 54 -16
64 -15 16 -65 22 -77 9z m53 -78 c0 -8 -9 -15 -20 -15 -20 0 -26 11 -13 23 12
13 33 7 33 -8z"/>
<path d="M1540 134 c0 -49 3 -64 14 -64 11 0 16 14 18 48 3 39 6 47 23 47 17
0 20 -8 23 -47 2 -34 7 -48 18 -48 18 0 20 103 2 118 -7 5 -32 10 -55 9 l-43
0 0 -63z"/>
<path d="M1693 194 c-23 -10 -15 -54 12 -66 14 -6 25 -16 25 -21 0 -5 -11 -7
-25 -5 -17 4 -25 1 -25 -9 0 -18 24 -27 56 -19 20 5 25 12 22 34 -2 16 -12 31
-25 37 -31 13 -29 28 2 22 20 -3 25 -1 23 12 -3 16 -42 25 -65 15z"/>
<path d="M1860 185 c-13 -16 -10 -18 33 -15 15 1 27 -3 27 -9 0 -6 -10 -11
-23 -11 -29 0 -47 -18 -47 -47 0 -23 16 -30 73 -31 26 0 27 1 27 58 0 44 -4
59 -16 64 -27 11 -61 6 -74 -9z m60 -65 c0 -12 -28 -25 -36 -17 -9 9 6 27 22
27 8 0 14 -5 14 -10z"/>
<path d="M2080 135 c0 -51 3 -65 15 -65 12 0 15 14 15 65 0 51 -3 65 -15 65
-12 0 -15 -14 -15 -65z"/>
<path d="M2157 182 c-21 -23 -22 -76 -1 -96 21 -22 67 -20 87 2 21 23 22 76 1
96 -21 22 -67 20 -87 -2z m68 -47 c0 -25 -4 -30 -25 -30 -16 0 -26 6 -28 18
-6 30 6 49 30 45 18 -2 23 -9 23 -33z"/>
<path d="M2290 133 c0 -49 3 -63 15 -63 11 0 15 12 15 45 0 33 5 47 16 52 21
8 34 -14 34 -59 0 -27 4 -38 15 -38 11 0 15 13 15 54 0 63 -10 74 -67 73 l-43
-2 0 -62z"/>
</g>
</svg>
